 <svg  version="1.0" xmlns="http://www.w3.org/2000/svg"  width="300.000000pt" height="300.000000pt" viewBox="0 0 300.000000 300.000000"  preserveAspectRatio="xMidYMid meet">  <g transform="translate(0.000000,300.000000) scale(0.050000,-0.050000)" fill="#9874d3" stroke="none"> <path d="M2630 5368 c-1893 -338 -2629 -2686 -1261 -4027 109 -108 111 -112 111 -224 0 -165 8 -177 96 -153 107 30 270 4 406 -65 1113 -562 2539 -104 3139 1008 545 1011 259 2342 -647 3007 -73 54 -95 81 -87 111 9 33 2 38 -41 29 -34 -6 -101 18 -213 77 -434 231 -1019 323 -1503 237z m674 -157 c552 -74 790 -211 973 -561 l73 -140 6 125 c7 153 4 153 168 5 981 -886 956 -2474 -52 -3300 -144 -119 -145 -118 -72 26 351 696 17 1275 -1130 1955 -1053 625 -1330 923 -1330 1432 0 211 12 230 187 303 390 164 751 211 1177 155z m-1533 -462 c-93 -233 -117 -633 -49 -829 99 -286 384 -542 1041 -936 1092 -655 1338 -933 1336 -1503 0 -144 -11 -223 -45 -320 l-44 -129 -140 -57 c-617 -251 -1447 -190 -1967 143 -99 64 -252 239 -360 412 l-62 100 -1 -89 0 -89 -81 79 c-876 855 -730 2505 289 3262 142 106 143 106 83 -44z"/> </g> </svg> 