<?xml version="1.0" standalone="no"?>
<!DOCTYPE svg PUBLIC "-//W3C//DTD SVG 20010904//EN"
 "http://www.w3.org/TR/2001/REC-SVG-20010904/DTD/svg10.dtd">
<svg version="1.0" xmlns="http://www.w3.org/2000/svg"
 width="300.000000pt" height="300.000000pt" viewBox="0 0 300.000000 300.000000"
 preserveAspectRatio="xMidYMid meet">
<metadata>
Created by potrace 1.10, written by Peter Selinger 2001-2011
</metadata>
<g transform="translate(0.000000,300.000000) scale(0.050000,-0.050000)"
fill="#8b6b94" stroke="none">
<path d="M2610 5248 c-88 -16 -241 -56 -340 -88 -99 -33 -205 -60 -235 -60
-35 0 -73 -21 -107 -59 -29 -32 -111 -92 -183 -135 -1198 -699 -1409 -2485
-417 -3521 l158 -166 4 -134 c3 -122 7 -134 42 -125 120 31 320 7 438 -54
1641 -842 3581 566 3312 2404 -80 550 -454 1200 -834 1453 l-71 47 9 133 8
134 -48 -19 c-72 -27 -224 -22 -326 10 -49 16 -175 57 -280 90 -372 120 -780
152 -1130 90z m931 -83 c461 -125 578 -206 723 -498 l86 -175 6 134 c7 169 8
169 219 -41 1010 -1004 878 -2650 -278 -3471 -166 -118 -182 -118 -76 1 336
381 391 921 135 1317 -162 250 -541 561 -1046 860 -1074 635 -1350 923 -1367
1421 -9 270 -7 272 249 366 409 150 979 186 1349 86z m-1727 -318 c-101 -197
-153 -557 -115 -794 59 -362 334 -630 1132 -1108 1067 -638 1362 -1012 1270
-1607 -60 -385 -177 -486 -681 -588 -390 -80 -1121 -4 -1240 127 -16 18 -90
76 -163 128 -164 116 -349 318 -450 492 l-77 132 -10 -167 -10 -166 -111 117
c-942 995 -787 2589 330 3403 154 112 168 115 125 31z m419 -1087 c152 -139
357 -283 377 -264 9 8 10 3 2 -11 -14 -24 12 -35 58 -26 11 3 14 -2 6 -10 -18
-17 369 -269 413 -269 17 0 31 -8 31 -18 0 -9 83 -67 185 -128 659 -393 975
-729 975 -1033 l-1 -131 -81 150 c-224 411 -491 642 -1322 1148 -228 139 -422
252 -433 252 -10 0 -23 12 -29 26 -5 14 -49 52 -97 85 -211 143 -397 386 -397
516 0 52 6 48 97 -61 53 -64 150 -165 216 -226z"/>
</g>
</svg>
