 <svg  version="1.0" xmlns="http://www.w3.org/2000/svg"  width="300.000000pt" height="300.000000pt" viewBox="0 0 300.000000 300.000000"  preserveAspectRatio="xMidYMid meet">  <g transform="translate(0.000000,300.000000) scale(0.050000,-0.050000)" fill="#8b6b94" stroke="none"> <path d="M2707 5260 c-159 -22 -372 -75 -493 -123 -52 -20 -127 -37 -165 -37 -52 0 -82 -15 -124 -62 -30 -34 -82 -76 -115 -93 -116 -60 -364 -263 -498 -407 -837 -904 -824 -2269 32 -3169 134 -142 136 -145 136 -255 0 -162 8 -174 96 -150 107 30 270 4 404 -64 1115 -563 2515 -86 3085 1050 475 949 211 2149 -622 2817 -64 51 -66 58 -60 172 l7 119 -120 -11 c-123 -11 -268 18 -550 112 -298 99 -727 142 -1013 101z m597 -49 c552 -74 790 -211 973 -561 l73 -140 6 125 c8 160 10 160 230 -60 966 -963 884 -2537 -176 -3374 -238 -188 -276 -200 -149 -48 233 281 323 732 210 1057 -119 340 -508 700 -1201 1111 -1053 625 -1330 923 -1330 1432 0 211 13 232 184 303 395 164 756 211 1180 155z m-1516 -420 c-105 -229 -138 -666 -66 -871 101 -287 384 -542 1041 -936 1087 -653 1337 -932 1337 -1496 0 -215 -48 -398 -138 -521 -208 -288 -1495 -349 -1789 -86 -34 31 -119 98 -187 148 -142 106 -291 272 -418 465 l-88 134 0 -168 0 -168 -93 89 c-976 941 -817 2684 316 3447 139 94 144 92 85 -37z"/> </g> </svg> 